<?xml version="1.0" standalone="no"?>
<!DOCTYPE svg PUBLIC "-//W3C//DTD SVG 20010904//EN"
 "http://www.w3.org/TR/2001/REC-SVG-20010904/DTD/svg10.dtd">
<svg version="1.0" xmlns="http://www.w3.org/2000/svg"
 width="1000.000000pt" height="1000.000000pt" viewBox="0 0 1000.000000 1000.000000"
 preserveAspectRatio="xMidYMid meet">
<metadata>
Created by potrace 1.14, written by Peter Selinger 2001-2017
</metadata>
<g transform="translate(0.000000,1000.000000) scale(0.100000,-0.100000)"
fill="#000000" stroke="none">
<path d="M3901 8951 c-52 -14 -151 -55 -151 -63 0 -5 -8 -8 -17 -8 -25 0 -114
-69 -134 -105 -17 -29 -17 -36 1 -165 11 -74 20 -162 20 -195 1 -33 7 -98 14
-145 10 -66 11 -88 1 -100 -17 -22 -45 -86 -45 -104 0 -10 -9 -16 -25 -16 -13
0 -37 -5 -52 -12 -91 -40 -274 -212 -338 -318 -57 -95 -90 -134 -138 -160 -23
-13 -51 -31 -62 -40 -53 -45 -63 -33 -44 49 7 30 7 47 -1 55 -5 5 -10 18 -10
28 0 10 -22 66 -50 124 -27 58 -50 112 -50 119 0 8 -3 16 -8 18 -10 7 -136
-35 -279 -93 -67 -28 -128 -50 -136 -50 -19 0 -126 -44 -222 -90 -52 -26 -82
-35 -86 -28 -11 18 -26 0 -34 -39 -9 -51 -110 -279 -143 -323 -53 -72 -168
-176 -213 -192 -61 -22 -270 -41 -317 -29 -20 5 -68 15 -107 22 -83 14 -217
58 -300 98 -96 46 -195 74 -240 69 -69 -9 -147 -44 -177 -80 -15 -18 -28 -37
-28 -42 0 -5 -10 -23 -23 -40 -84 -113 -120 -252 -131 -511 -4 -82 -9 -162
-12 -177 -4 -19 -1 -28 8 -28 16 0 88 -95 88 -116 0 -18 17 -18 71 2 178 64
435 137 450 128 4 -2 14 5 23 15 15 16 15 22 1 61 -25 71 -20 110 24 177 21
33 55 73 74 87 36 27 37 27 176 24 155 -3 154 -2 76 -67 -48 -40 -182 -182
-278 -295 -47 -55 -160 -281 -181 -362 -36 -138 -48 -437 -22 -544 85 -349
236 -685 331 -734 17 -9 37 -20 45 -24 8 -5 47 -24 85 -44 221 -111 375 -203
375 -225 0 -13 -13 -15 -83 -9 -251 18 -344 35 -382 66 -13 11 -15 7 -15 -23
0 -45 -39 -132 -77 -172 -15 -16 -41 -50 -58 -74 -16 -24 -49 -60 -72 -80 -24
-19 -43 -40 -43 -46 0 -6 -28 -38 -61 -73 -34 -34 -72 -78 -85 -97 -13 -19
-48 -64 -79 -100 -30 -36 -55 -70 -55 -75 0 -5 -8 -17 -19 -27 -22 -22 -121
-171 -121 -183 0 -5 -18 -51 -41 -102 -51 -115 -75 -234 -88 -443 -20 -290 -9
-477 44 -760 8 -44 14 -114 15 -156 0 -61 5 -84 24 -120 14 -24 44 -81 67
-126 36 -71 46 -83 68 -83 50 0 149 23 256 61 148 52 262 86 310 94 22 4 62
13 88 22 27 8 57 13 68 10 23 -6 24 16 9 158 -9 72 -7 145 5 315 8 121 15 230
15 241 0 19 5 18 68 -17 37 -20 78 -45 92 -54 14 -9 69 -36 122 -60 92 -42 97
-46 91 -70 -3 -14 -10 -31 -16 -38 -5 -7 -8 -14 -6 -16 11 -10 111 -48 164
-61 33 -8 127 -38 208 -66 106 -35 152 -47 161 -40 7 6 13 30 14 53 1 23 4 43
7 46 2 3 31 -1 62 -7 183 -39 210 -41 287 -26 164 31 298 121 466 313 30 34
63 76 72 93 9 17 23 38 32 48 9 10 16 25 16 34 0 30 23 31 44 1 43 -59 110
-114 179 -148 123 -59 310 -82 413 -51 70 21 74 20 55 -18 -15 -30 -17 -66
-14 -318 3 -275 4 -286 27 -334 55 -115 75 -162 82 -189 6 -26 9 -28 48 -24
23 3 72 19 109 37 38 17 75 31 83 31 16 0 162 57 179 71 14 10 132 58 181 73
22 7 88 39 145 72 57 32 117 65 134 74 41 21 67 80 90 205 13 69 43 164 63
201 17 30 82 234 82 255 0 11 15 75 34 142 19 67 42 153 52 191 10 38 19 65
21 59 2 -6 -12 -71 -31 -144 -46 -176 -66 -263 -76 -324 -5 -27 -18 -81 -30
-120 -48 -157 -50 -168 -49 -305 0 -74 4 -175 8 -225 6 -88 8 -91 56 -156 120
-159 167 -103 195 232 5 63 16 152 25 199 8 47 23 141 31 210 9 69 20 157 25
195 5 39 13 128 18 198 9 129 15 155 31 126 5 -8 30 -44 55 -78 25 -34 50 -74
55 -87 6 -14 29 -55 54 -92 24 -37 56 -91 71 -119 15 -29 56 -85 91 -124 35
-39 64 -77 64 -84 0 -8 17 -35 37 -62 20 -26 72 -104 116 -172 43 -68 85 -131
93 -139 8 -8 24 -34 35 -57 11 -23 28 -51 37 -61 29 -30 92 -128 92 -141 0 -6
4 -13 8 -15 9 -3 95 -129 130 -191 13 -22 45 -70 72 -106 27 -36 55 -76 62
-91 17 -34 86 -139 113 -172 13 -15 33 -47 45 -73 27 -56 58 -78 94 -69 32 8
235 185 370 323 54 56 102 101 106 101 5 0 31 26 59 58 28 31 92 104 144 162
51 58 108 125 127 150 19 25 40 50 46 57 16 17 29 124 27 225 -1 49 2 88 5 88
4 -1 18 -7 32 -15 39 -22 46 -19 73 43 14 31 46 94 70 139 l45 82 -14 58 c-47
200 -73 419 -80 697 -5 192 -4 229 7 218 7 -6 20 -12 29 -12 8 0 38 -17 65
-38 125 -94 175 -116 175 -76 0 15 72 174 115 255 14 26 25 53 25 60 0 6 14
41 30 76 17 34 30 65 30 68 0 2 18 42 40 89 22 46 40 88 40 92 0 14 41 94 52
100 7 4 8 -11 3 -47 -4 -30 -20 -148 -35 -264 l-26 -210 -62 -31 c-34 -16 -68
-37 -75 -45 -12 -12 -24 -80 -64 -359 -5 -35 -16 -46 -90 -88 -13 -7 -23 -17
-23 -23 0 -5 -9 -73 -20 -152 -11 -78 -24 -191 -30 -252 -6 -60 -17 -157 -25
-214 -15 -106 -18 -147 -8 -123 2 6 10 12 17 12 7 0 39 13 72 29 160 77 402
148 619 182 304 48 754 25 1081 -56 50 -12 101 -28 113 -35 13 -6 25 -10 27
-7 3 3 1 118 -3 256 l-9 251 -36 37 c-45 48 -88 113 -88 133 0 9 -14 38 -32
66 -32 50 -94 200 -108 264 -5 19 -20 67 -35 105 -37 97 -105 338 -105 372 0
30 -43 206 -83 343 -56 188 -72 359 -91 965 -14 422 -13 464 18 780 9 88 17
237 18 331 l3 171 -35 12 c-19 7 -46 15 -60 18 -14 3 -34 13 -45 23 -11 10
-35 25 -54 35 -43 22 -209 187 -286 285 -32 41 -62 77 -65 80 -12 11 -138 226
-145 248 -4 13 -16 45 -28 70 l-21 47 -14 -45 c-41 -134 -82 -287 -82 -305 0
-12 -30 -124 -67 -251 -36 -126 -69 -249 -72 -273 -3 -25 -11 -46 -18 -48 -14
-5 -15 2 -39 132 -19 107 -49 242 -69 305 -19 63 -42 146 -81 285 -60 220
-108 339 -245 610 -70 138 -211 313 -388 479 -69 65 -137 125 -151 134 -14 9
-52 39 -85 67 -72 62 -89 72 -134 76 -32 4 -34 2 -48 -41 -8 -25 -25 -85 -38
-135 -27 -106 -24 -116 -60 175 -25 197 -35 257 -35 202 0 -11 -4 -24 -10 -27
-11 -7 -92 -258 -116 -360 -20 -85 -49 -188 -103 -358 l-40 -128 25 -192 c13
-106 26 -203 29 -217 3 -14 12 -115 20 -225 8 -110 19 -229 25 -265 12 -88 28
-496 34 -887 l5 -323 -58 7 c-89 9 -126 -2 -176 -52 -24 -24 -46 -41 -49 -37
-3 3 -6 19 -6 37 0 17 -4 35 -10 41 -5 5 -20 38 -33 74 -19 52 -22 69 -13 86
7 13 13 99 15 223 l3 201 -51 94 c-28 52 -51 101 -51 109 0 7 -31 77 -70 156
-38 78 -70 146 -70 152 0 5 -26 62 -59 127 -32 64 -62 128 -66 142 -4 14 -39
89 -76 168 -38 79 -69 147 -69 152 0 5 -31 72 -70 149 -38 77 -70 145 -70 151
0 16 -111 240 -119 240 -3 0 -37 6 -76 14 -38 8 -136 22 -216 31 l-146 15 -44
-44 c-68 -68 -212 -226 -228 -250 -8 -12 -31 -39 -51 -61 -26 -27 -41 -56 -49
-90 -21 -94 -41 -258 -41 -332 0 -40 -4 -73 -9 -73 -5 0 -22 21 -37 48 -15 26
-30 49 -33 52 -30 23 -79 104 -90 145 -28 110 -171 356 -232 399 -19 13 -20
18 -9 50 10 30 9 45 -6 88 -34 102 8 306 91 444 20 33 38 70 42 84 3 14 10 31
16 38 17 21 2 117 -28 177 -41 84 -163 205 -248 244 -36 17 -91 37 -120 45
-67 18 -261 28 -306 17z m3049 -776 c5 -93 15 -237 21 -320 16 -230 14 -295
-10 -348 -12 -25 -25 -48 -29 -51 -5 -3 -14 21 -20 52 -6 31 -20 100 -32 152
-11 52 -27 139 -35 193 -9 55 -20 107 -25 117 -15 27 -12 57 11 130 36 116
104 286 106 265 1 -11 7 -96 13 -190z m210 41 c20 -13 43 -25 52 -27 28 -6
198 -140 268 -210 36 -36 82 -78 103 -94 21 -16 44 -40 52 -55 7 -14 27 -39
43 -56 41 -41 199 -277 234 -349 16 -33 50 -96 77 -140 70 -119 90 -193 56
-212 -13 -8 -13 -15 0 -58 56 -195 85 -301 85 -307 0 -5 -6 -8 -13 -8 -11 0
-57 129 -57 161 0 15 -70 189 -85 211 -22 33 -36 1 -55 -123 -10 -68 -23 -137
-28 -154 -5 -16 -15 -61 -22 -100 -7 -38 -30 -133 -51 -210 -22 -77 -39 -152
-39 -166 0 -27 -5 -45 -64 -234 -47 -150 -75 -233 -97 -280 -9 -22 -24 -56
-32 -75 -8 -19 -33 -55 -55 -78 l-41 -43 -49 15 c-30 8 -54 11 -63 5 -21 -13
-28 -11 -57 18 -16 16 -40 28 -60 30 -18 1 -31 -1 -28 -5 2 -4 -7 -8 -21 -9
-19 -1 -22 1 -12 8 8 5 10 9 4 9 -17 0 -40 -19 -40 -32 0 -7 -8 -12 -18 -12
-9 1 -17 -2 -17 -7 0 -5 -6 -9 -14 -9 -8 0 -17 -8 -20 -17 -3 -10 -3 248 0
572 7 640 7 637 -2 678 -4 21 -13 29 -35 34 -33 6 -32 4 -18 40 11 27 49 223
49 250 0 8 -27 -13 -59 -46 -33 -34 -64 -61 -69 -61 -6 0 -4 20 3 48 7 26 25
90 40 143 67 247 76 311 85 654 5 176 9 321 9 323 3 9 32 -2 61 -22z m-3085
-299 c77 -18 201 -77 246 -116 19 -17 39 -31 45 -31 12 0 63 -52 98 -100 65
-90 126 -182 126 -191 0 -5 9 -28 20 -49 11 -22 18 -40 15 -40 -2 0 -28 17
-56 39 -51 39 -71 50 -212 116 -106 50 -181 75 -252 86 -33 4 -103 15 -155 24
-52 8 -132 15 -178 15 l-83 0 22 39 c38 68 122 163 174 198 55 36 76 38 190
10z m-625 -98 c-39 -51 -74 -108 -80 -129 -10 -35 -12 -37 -74 -48 -81 -15
-96 -15 -96 2 0 19 83 125 98 126 7 0 26 14 42 31 34 38 138 107 162 108 13 1
-2 -25 -52 -90z m2040 51 c96 -17 185 -33 197 -35 18 -4 38 -36 88 -138 36
-73 65 -139 65 -146 0 -7 32 -78 70 -157 39 -79 70 -147 70 -153 0 -5 25 -63
56 -128 31 -65 67 -145 79 -178 13 -33 48 -112 79 -176 31 -64 56 -121 56
-127 0 -5 32 -76 70 -157 39 -81 70 -153 70 -160 0 -6 -17 -20 -39 -29 -37
-17 -40 -17 -77 2 -63 31 -138 72 -156 84 -9 7 -20 9 -24 5 -9 -9 21 -110 59
-201 16 -38 30 -78 33 -89 3 -19 3 -19 -19 -1 -12 10 -19 15 -15 10 21 -26
-130 -68 -232 -65 -41 1 -102 2 -135 1 -33 -1 -98 4 -145 12 -71 11 -88 11
-101 -1 -9 -7 -19 -10 -23 -6 -4 5 -6 -1 -4 -12 3 -17 -3 -20 -44 -20 -25 0
-44 -3 -42 -7 2 -4 0 -9 -5 -12 -5 -4 -12 -2 -15 3 -4 6 -18 6 -35 1 -16 -4
-32 -6 -34 -4 -6 7 -104 -23 -139 -42 -14 -8 -48 -14 -75 -14 -55 0 -69 -7
-75 -35 -2 -11 -10 -19 -19 -17 -9 1 -30 -14 -48 -34 -20 -21 -39 -33 -48 -30
-8 3 -28 -1 -45 -10 -19 -10 -44 -14 -64 -11 -27 5 -37 1 -51 -16 -10 -13 -29
-23 -42 -24 -22 -2 -23 1 -17 35 3 20 11 97 16 171 6 73 13 143 15 155 3 11
21 128 39 258 28 193 38 243 56 268 45 64 60 191 48 425 -3 41 8 161 17 199 3
11 14 77 24 145 21 136 12 119 141 254 36 37 66 71 68 76 2 5 34 42 73 82 38
39 69 75 69 80 0 4 8 5 18 3 9 -2 96 -17 192 -34z m-2716 -27 c-3 -21 -12 -61
-20 -89 -8 -28 -16 -64 -18 -80 -2 -16 -25 -117 -50 -225 -25 -108 -46 -205
-46 -215 0 -23 -25 -144 -91 -433 -27 -118 -49 -226 -49 -240 0 -37 -53 -215
-74 -245 -39 -60 -43 -7 -20 274 9 103 -1 111 -93 80 -37 -12 -88 -38 -115
-56 -26 -19 -50 -34 -54 -34 -3 0 -24 -13 -47 -28 -23 -16 -50 -31 -59 -35 -9
-3 -43 -26 -75 -50 -32 -24 -78 -55 -103 -68 -44 -24 -143 -111 -204 -179 -17
-19 -48 -50 -70 -70 -87 -80 -173 -239 -211 -395 -46 -185 -47 -283 -4 -406
37 -106 68 -158 147 -246 72 -81 116 -116 105 -86 -3 12 1 10 12 -5 11 -15 15
-35 13 -54 -5 -28 -4 -29 9 -13 7 11 13 13 13 6 0 -6 -11 -22 -25 -35 -14 -13
-25 -30 -25 -39 0 -20 -39 -28 -103 -21 -46 5 -61 13 -108 57 -30 27 -74 66
-99 85 -43 34 -58 50 -117 115 -25 29 -73 122 -73 143 0 6 -9 40 -21 75 -11
35 -29 96 -39 134 -15 54 -19 62 -19 37 -1 -51 -25 -34 -33 24 -4 27 -9 123
-10 214 l-2 165 38 130 c45 153 115 304 163 354 8 7 32 40 54 72 22 32 43 59
47 59 4 0 37 26 74 58 38 33 85 64 106 70 47 14 86 46 225 184 101 101 130
140 90 123 -10 -5 -42 -11 -70 -15 -40 -4 -53 -3 -53 7 0 16 -1 16 -85 -7 -38
-11 -90 -25 -115 -31 -53 -13 -177 -3 -226 17 -18 8 -46 14 -61 14 -15 0 -41
7 -57 15 -65 34 -183 4 -226 -58 -48 -69 -61 -74 -215 -81 -208 -10 -205 -9
-219 -91 -11 -65 -16 -75 -36 -75 -11 0 -18 5 -15 13 2 6 6 61 9 120 4 100 7
113 41 179 39 74 48 88 78 116 9 9 17 21 17 27 0 18 61 71 109 95 36 18 56 21
100 17 54 -5 168 -51 221 -89 14 -9 43 -22 65 -27 22 -6 84 -23 137 -40 204
-61 364 -58 515 11 93 42 207 162 267 283 62 125 96 203 103 237 4 20 13 30
32 35 14 3 67 25 116 48 50 23 101 46 115 50 14 4 30 11 36 16 5 4 35 15 65
23 30 8 106 34 169 59 143 55 142 55 158 56 9 1 11 -9 6 -36z m1181 -279 c22
-5 43 -7 48 -6 11 3 149 -29 169 -40 10 -5 42 -13 72 -19 29 -5 81 -23 115
-39 34 -17 64 -30 67 -30 3 0 30 -16 60 -35 30 -19 58 -35 63 -35 5 0 29 -18
53 -41 23 -22 62 -55 85 -72 23 -18 43 -35 43 -38 0 -4 23 -41 51 -82 l52 -76
-2 -118 c-1 -65 -4 -134 -8 -153 -8 -47 -62 -158 -81 -165 -12 -5 -14 5 -8 63
8 80 52 246 66 250 57 19 -128 221 -260 283 -25 12 -58 31 -75 44 -16 12 -58
36 -92 53 -34 18 -64 36 -68 42 -3 5 -13 10 -21 10 -18 0 -97 60 -129 98 -23
27 -80 52 -121 52 -11 0 -32 7 -49 16 -16 9 -43 16 -60 16 -27 -1 -44 11 -45
31 0 5 8 6 18 3 9 -3 35 -8 57 -12z m458 -454 c27 -17 50 -30 53 -30 9 0 116
-71 137 -91 12 -11 41 -29 65 -40 23 -11 42 -26 42 -33 0 -8 -9 -42 -19 -77
-51 -171 -90 -382 -101 -544 -5 -71 -12 -160 -16 -197 l-7 -68 -56 32 c-31 17
-58 34 -61 37 -3 4 -23 12 -45 20 -22 7 -73 27 -112 44 -78 32 -86 44 -57 85
10 14 14 37 12 58 -2 19 -1 34 2 34 3 0 13 16 22 35 8 19 12 32 8 30 -4 -3
-10 2 -14 10 -3 8 -1 17 3 20 5 2 12 35 16 71 4 37 10 62 13 57 4 -6 9 28 11
75 7 127 6 155 -4 176 -7 16 -5 18 8 13 16 -6 16 -4 2 17 -8 12 -12 25 -9 29
11 10 5 118 -6 133 -22 26 -29 117 -10 139 5 6 6 15 2 19 -13 15 73 -24 121
-54z m4232 -120 c10 -19 32 -52 50 -72 17 -20 38 -50 46 -65 22 -43 161 -213
215 -264 45 -41 132 -104 189 -136 53 -30 51 -35 -34 -146 -45 -58 -81 -110
-81 -117 0 -6 -8 -22 -17 -35 -10 -12 -25 -33 -33 -45 -8 -12 -27 -38 -42 -58
-16 -19 -28 -38 -28 -41 0 -3 -11 -19 -25 -36 -34 -42 -37 -44 -92 -97 -42
-40 -57 -48 -97 -51 -27 -3 -60 -13 -76 -26 -33 -24 -64 -27 -80 -8 -19 22
-60 88 -60 96 0 4 -11 18 -25 31 -14 13 -25 29 -25 37 0 7 -7 13 -16 13 -12 0
-14 7 -10 28 3 15 8 54 12 87 3 33 19 121 34 195 16 74 31 164 35 200 3 36 27
157 51 270 25 112 50 229 56 260 13 70 21 83 28 45 4 -17 15 -46 25 -65z
m-5802 -130 c21 -34 44 -60 53 -60 15 0 16 -9 9 -72 -5 -40 -9 -224 -10 -408
l-2 -335 -27 -15 -28 -15 6 -180 c4 -99 9 -216 13 -260 l5 -80 -28 26 c-64 59
-104 79 -160 79 l-54 0 -39 78 -39 78 13 60 c7 32 20 91 29 129 47 207 56 252
56 280 0 26 59 299 115 531 12 49 33 181 35 217 1 19 18 2 53 -53z m4161 -182
c9 -111 12 -1065 4 -1074 -5 -4 -19 -2 -32 4 l-24 10 -7 504 c-4 277 -4 519 0
536 8 41 34 92 45 92 5 0 11 -33 14 -72z m-2258 -205 c-4 -27 -11 -94 -16
-150 -6 -56 -17 -140 -25 -185 -8 -46 -15 -97 -15 -115 0 -17 -4 -35 -10 -38
-12 -8 -13 59 0 180 5 50 14 140 20 200 11 115 22 155 41 155 8 0 10 -14 5
-47z m1446 -215 c27 -13 58 -64 58 -96 0 -9 14 -43 30 -74 19 -36 26 -59 20
-63 -20 -13 -37 3 -65 62 -15 32 -43 89 -61 126 -18 38 -28 66 -21 64 7 -3 24
-11 39 -19z m-2664 -304 c29 -14 68 -45 87 -68 74 -91 257 -189 316 -171 19 7
13 -11 -51 -145 -4 -8 -31 -27 -60 -42 -41 -22 -66 -28 -114 -28 -56 0 -65 3
-98 34 -36 34 -63 95 -108 246 -25 81 -83 177 -115 191 -14 5 -3 8 36 8 40 1
69 -6 107 -25z m802 -143 c19 -4 90 -3 158 3 67 5 124 7 127 4 5 -5 -45 -107
-64 -129 -6 -8 -25 -33 -41 -56 -48 -68 -99 -70 -163 -6 -73 73 -116 132 -131
181 -7 22 -6 22 36 16 24 -3 59 -9 78 -13z m2488 -328 c1 -71 -2 -142 -7 -156
-10 -26 -65 -57 -101 -57 -9 0 -30 -11 -46 -25 -16 -14 -31 -25 -35 -25 -3 0
-18 -20 -33 -45 -16 -25 -36 -45 -45 -45 -9 0 -27 -9 -41 -20 -14 -11 -30 -20
-37 -20 -7 0 -22 -13 -35 -30 -12 -16 -28 -30 -35 -30 -7 0 -13 -4 -13 -10 0
-5 -12 -13 -27 -16 -40 -9 -140 -62 -193 -101 -27 -20 -93 -49 -165 -74 -66
-22 -138 -49 -161 -60 -23 -10 -63 -22 -89 -26 -42 -5 -48 -4 -42 10 5 12 1
17 -13 17 -10 0 -22 5 -26 12 -10 15 48 66 83 73 37 8 57 20 145 85 40 30 92
68 116 84 24 16 63 47 87 68 24 21 47 38 52 38 14 0 150 126 263 245 57 61
136 140 175 177 62 60 75 67 115 70 25 2 59 1 75 -2 l30 -6 3 -131z m-4908
113 c0 -8 -11 -94 -25 -192 -14 -99 -27 -192 -29 -209 -2 -23 6 -40 38 -77 23
-27 46 -48 51 -48 17 0 408 166 440 187 11 7 28 13 38 13 10 0 41 12 68 26
l51 25 47 -19 c25 -11 74 -23 109 -27 34 -4 62 -11 62 -15 0 -13 -88 -87 -124
-104 -19 -9 -56 -19 -83 -22 -26 -4 -60 -13 -74 -20 -43 -22 -93 -86 -134
-172 -29 -62 -43 -82 -58 -82 -11 0 -84 32 -163 70 -80 39 -149 70 -155 70
-16 0 -136 58 -151 73 -7 8 -35 26 -62 42 -68 40 -88 75 -84 150 8 131 147
340 231 345 4 0 7 -6 7 -14z m2453 -182 c81 -7 155 -18 165 -24 13 -9 8 -10
-23 -5 -135 20 -274 13 -345 -19 -11 -4 -19 2 -27 23 -9 25 -8 30 6 33 33 8
80 6 224 -8z m179 -96 c25 -7 46 -24 64 -50 24 -34 26 -44 20 -95 -7 -56 -37
-106 -51 -83 -8 14 -48 13 -62 -1 -9 -9 -18 -8 -38 5 -14 9 -23 21 -20 26 4 6
-1 10 -9 10 -9 0 -16 5 -16 11 0 5 -25 22 -55 35 -51 24 -63 25 -139 19 -68
-6 -88 -4 -107 9 -16 10 -45 15 -82 15 -32 -1 -60 1 -63 4 -6 6 63 47 79 47 7
0 39 9 72 20 133 43 315 56 407 28z m-1616 -253 c13 -14 34 -25 49 -25 22 0
25 -4 25 -33 0 -85 22 -366 40 -497 10 -80 22 -170 25 -200 l6 -55 -31 47
c-43 65 -251 262 -303 287 -23 11 -62 39 -87 61 -25 22 -64 50 -87 61 -23 11
-53 29 -66 39 -13 10 -48 30 -79 43 -64 29 -74 40 -51 58 12 11 47 13 142 11
l127 -2 58 35 c55 33 149 122 183 173 19 28 21 28 49 -3z m1422 -6 c17 -6 34
-20 37 -30 4 -11 19 -26 33 -32 15 -7 32 -15 37 -20 6 -4 18 -13 27 -20 16
-11 16 -22 7 -117 -20 -196 25 -814 77 -1045 13 -60 24 -120 24 -133 0 -13 5
-32 10 -42 12 -23 -8 -100 -28 -108 -21 -8 -30 9 -41 78 -6 36 -15 66 -21 68
-5 2 -10 13 -10 25 0 12 -9 37 -20 55 -11 18 -20 45 -21 60 0 27 -17 77 -18
56 -1 -6 -8 -11 -16 -11 -10 0 -12 4 -5 12 8 9 6 14 -5 19 -8 3 -15 12 -15 20
0 8 -5 16 -11 18 -17 6 -49 117 -42 148 3 15 0 31 -6 34 -6 4 -11 18 -11 32 0
14 -7 36 -16 50 -9 13 -18 45 -21 70 -2 26 -11 54 -22 65 -10 11 -21 42 -24
71 -4 27 -11 56 -17 63 -16 19 -31 71 -44 150 -2 11 -4 20 -6 20 -1 0 -3 34
-3 77 -1 42 0 75 3 73 3 -2 4 11 2 29 -2 21 2 37 12 45 22 19 154 40 208 34
51 -6 63 4 49 41 -17 44 -120 60 -201 31 -23 -8 -48 -15 -55 -15 -18 0 -32 42
-24 75 4 17 7 27 8 22 0 -4 16 0 34 10 29 17 66 29 93 32 6 0 25 -4 42 -10z
m-2943 -622 c50 -6 141 -11 203 -11 61 1 112 0 112 -3 0 -2 -11 -30 -25 -63
-14 -33 -25 -66 -25 -73 0 -8 -25 -65 -55 -127 -53 -106 -57 -112 -74 -96 -9
9 -20 16 -24 16 -3 0 -44 18 -91 40 -47 22 -90 40 -95 40 -17 0 -13 17 20 80
32 62 34 106 4 130 -18 15 -32 6 -50 -33 -8 -18 -26 -52 -40 -77 -13 -24 -26
-48 -28 -54 -5 -14 -77 13 -77 30 0 7 20 43 45 80 25 36 45 72 45 79 0 8 5 26
12 40 9 20 17 25 32 20 12 -3 62 -11 111 -18z m545 -183 c0 -4 25 -36 56 -72
70 -83 128 -201 119 -243 -8 -38 -90 -104 -148 -121 -57 -16 -255 -16 -285 0
l-23 13 30 52 c16 29 41 72 55 97 25 42 33 59 71 143 8 17 22 44 32 59 17 27
17 29 -11 85 -16 32 -32 72 -36 88 -4 17 -11 37 -15 47 -3 9 30 -19 74 -63 45
-43 81 -81 81 -85z m4920 -108 l0 -53 -46 -18 c-26 -10 -67 -20 -90 -23 -71
-8 -56 21 51 97 39 27 73 50 78 50 4 1 7 -23 7 -53z m-55 -526 c-3 -5 -11 -10
-16 -10 -6 0 -7 5 -4 10 3 6 11 10 16 10 6 0 7 -4 4 -10z m-645 -246 c3 -54
11 -110 17 -124 20 -43 61 -590 44 -590 -3 0 -22 25 -41 55 -19 30 -39 55 -43
55 -4 0 -14 15 -22 33 -7 17 -43 72 -79 121 -36 49 -66 95 -66 101 0 7 -10 20
-21 31 -24 21 -93 118 -124 173 -12 20 -45 68 -75 108 -30 39 -60 86 -67 103
-12 32 -12 32 15 27 124 -26 188 -28 312 -9 69 11 130 18 135 17 6 -1 12 -46
15 -101z m-940 -819 c0 -8 -4 -15 -9 -15 -13 0 -22 16 -14 24 11 11 23 6 23
-9z"/>
<path d="M1293 6428 c-11 -13 -38 -50 -60 -83 -22 -33 -55 -75 -72 -94 -17
-18 -34 -45 -37 -60 -3 -14 -14 -51 -25 -81 -43 -127 -77 -320 -73 -425 5
-134 7 -139 14 -40 7 96 14 165 26 250 14 102 93 316 133 360 11 11 29 40 42
65 13 25 33 59 44 75 41 57 45 74 8 33z"/>
<path d="M4185 5010 c-3 -5 -1 -10 4 -10 6 0 11 5 11 10 0 6 -2 10 -4 10 -3 0
-8 -4 -11 -10z"/>
</g>
</svg>
